<svg xmlns="http://www.w3.org/2000/svg" viewBox="0 0 96 96" role="img" aria-labelledby="title desc">
  <title id="title">SPRITEbot mark</title>
  <desc id="desc">A glowing game die with a small chat tail.</desc>
  <defs>
    <linearGradient id="a" x1="13" y1="8" x2="83" y2="88" gradientUnits="userSpaceOnUse">
      <stop stop-color="#8ee6ff" />
      <stop offset=".45" stop-color="#8b8cff" />
      <stop offset="1" stop-color="#44f0a8" />
    </linearGradient>
  </defs>
  <path fill="#181a2a" d="M48 5 84 26v41L48 91 12 67V26L48 5Z" />
  <path fill="url(#a)" d="M48 10 79 28v36L48 86 17 64V28L48 10Z" />
  <path fill="#101321" d="M48 19 70 32v25L48 73 26 57V32l22-13Z" />
  <path fill="#eef7ff" d="M36 35h8v8h-8zM52 35h8v8h-8zM44 50h8v8h-8z" />
  <path fill="#44f0a8" d="M63 59h13l-13 11v-11Z" />
</svg>
